<svg viewBox="0 0 1200 630" xmlns="http://www.w3.org/2000/svg" font-family="'Courier New', monospace">
  <rect x="0" y="0" width="1200" height="630" fill="#faf6ed" stroke="#2c2417" stroke-width="3"/>

  <!-- Title bar -->
  <rect x="40" y="30" width="1120" height="50" fill="#2c2417"/>
  <text x="600" y="62" text-anchor="middle" font-size="24" fill="#faf6ed" font-weight="bold">rune</text>
  <text x="1100" y="62" text-anchor="end" font-size="14" fill="#6b5d4f">skill registry manager</text>

  <!-- Subtitle -->
  <text x="600" y="110" text-anchor="middle" font-size="14" fill="#6b5d4f">syncs inscribed knowledge from git registries into .claude/skills/</text>
  <line x1="200" y1="125" x2="1000" y2="125" stroke="#c4b99a" stroke-width="1"/>

  <!-- Left: Registries -->
  <text x="180" y="160" text-anchor="middle" font-size="13" fill="#2c2417" font-weight="bold">REGISTRIES</text>

  <!-- Public registry box -->
  <rect x="50" y="175" width="260" height="140" fill="none" stroke="#2c2417" stroke-width="2"/>
  <rect x="50" y="175" width="260" height="24" fill="#2c2417"/>
  <text x="180" y="193" text-anchor="middle" font-size="12" fill="#faf6ed">runes (public)</text>
  <text x="65" y="215" font-size="11" fill="#6b5d4f">tidy.md</text>
  <text x="65" y="232" font-size="11" fill="#6b5d4f">mirror.md</text>
  <text x="65" y="249" font-size="11" fill="#6b5d4f">preview.md</text>
  <text x="65" y="266" font-size="11" fill="#6b5d4f">iconography.md</text>
  <text x="65" y="283" font-size="11" fill="#6b5d4f">research.md</text>
  <text x="180" y="215" font-size="11" fill="#6b5d4f">github.md</text>
  <text x="180" y="232" font-size="11" fill="#6b5d4f">glab.md</text>
  <text x="180" y="249" font-size="11" fill="#6b5d4f">gh.md</text>

  <!-- Private registry box -->
  <rect x="50" y="335" width="260" height="120" fill="none" stroke="#2c2417" stroke-width="2"/>
  <rect x="50" y="335" width="260" height="24" fill="#2c2417"/>
  <text x="180" y="353" text-anchor="middle" font-size="12" fill="#faf6ed">arcana (private)</text>
  <text x="65" y="377" font-size="11" fill="#6b5d4f">voice.md</text>
  <text x="65" y="394" font-size="11" fill="#6b5d4f">cadence.md</text>
  <text x="65" y="411" font-size="11" fill="#6b5d4f">glean.md</text>
  <text x="65" y="428" font-size="11" fill="#6b5d4f">dkg.md</text>
  <text x="180" y="377" font-size="11" fill="#6b5d4f">gcloud.md</text>
  <text x="180" y="394" font-size="11" fill="#6b5d4f">gws.md</text>

  <!-- Center: rune CLI -->
  <rect x="430" y="195" width="180" height="230" fill="none" stroke="#2c2417" stroke-width="3"/>
  <rect x="430" y="195" width="180" height="28" fill="#2c2417"/>
  <text x="520" y="215" text-anchor="middle" font-size="14" fill="#faf6ed" font-weight="bold">rune</text>
  <text x="445" y="245" font-size="11" fill="#2c2417">check</text>
  <text x="445" y="262" font-size="10" fill="#6b5d4f">  detect drift</text>
  <text x="445" y="285" font-size="11" fill="#2c2417">sync</text>
  <text x="445" y="302" font-size="10" fill="#6b5d4f">  pull updates</text>
  <text x="445" y="325" font-size="11" fill="#2c2417">push</text>
  <text x="445" y="342" font-size="10" fill="#6b5d4f">  send upstream</text>
  <text x="445" y="365" font-size="11" fill="#2c2417">add / ls</text>
  <text x="445" y="382" font-size="10" fill="#6b5d4f">  manage skills</text>

  <!-- Right: Projects -->
  <text x="870" y="160" text-anchor="middle" font-size="13" fill="#2c2417" font-weight="bold">PROJECTS</text>

  <rect x="740" y="175" width="210" height="90" fill="none" stroke="#2c2417" stroke-width="2"/>
  <rect x="740" y="175" width="210" height="24" fill="#2c2417"/>
  <text x="845" y="193" text-anchor="middle" font-size="12" fill="#faf6ed">project-A</text>
  <text x="755" y="217" font-size="10" fill="#6b5d4f">.claude/skills/tidy.md</text>
  <text x="755" y="232" font-size="10" fill="#6b5d4f">.claude/skills/voice.md</text>
  <text x="755" y="247" font-size="10" fill="#6b5d4f">.claude/rune.toml</text>

  <rect x="740" y="285" width="210" height="90" fill="none" stroke="#2c2417" stroke-width="2"/>
  <rect x="740" y="285" width="210" height="24" fill="#2c2417"/>
  <text x="845" y="303" text-anchor="middle" font-size="12" fill="#faf6ed">project-B</text>
  <text x="755" y="327" font-size="10" fill="#6b5d4f">.claude/skills/tidy.md</text>
  <text x="755" y="342" font-size="10" fill="#6b5d4f">.claude/skills/research.md</text>
  <text x="755" y="357" font-size="10" fill="#6b5d4f">.claude/rune.toml</text>

  <rect x="740" y="395" width="210" height="75" fill="none" stroke="#2c2417" stroke-width="2"/>
  <rect x="740" y="395" width="210" height="24" fill="#2c2417"/>
  <text x="845" y="413" text-anchor="middle" font-size="12" fill="#faf6ed">project-C</text>
  <text x="755" y="437" font-size="10" fill="#6b5d4f">.claude/skills/mirror.md</text>
  <text x="755" y="452" font-size="10" fill="#6b5d4f">.claude/rune.toml</text>

  <!-- Arrows: registries -> rune -->
  <line x1="310" y1="245" x2="430" y2="285" stroke="#2c2417" stroke-width="2" marker-end="url(#arr)"/>
  <line x1="310" y1="395" x2="430" y2="345" stroke="#2c2417" stroke-width="2" marker-end="url(#arr)"/>
  <text x="358" y="248" font-size="9" fill="#6b5d4f">git pull</text>
  <text x="358" y="388" font-size="9" fill="#6b5d4f">git pull</text>

  <!-- Arrows: rune -> projects -->
  <line x1="610" y1="270" x2="740" y2="220" stroke="#2c2417" stroke-width="2" marker-end="url(#arr)"/>
  <line x1="610" y1="310" x2="740" y2="330" stroke="#2c2417" stroke-width="2" marker-end="url(#arr)"/>
  <line x1="610" y1="360" x2="740" y2="430" stroke="#2c2417" stroke-width="2" marker-end="url(#arr)"/>
  <text x="665" y="232" font-size="9" fill="#6b5d4f">sync</text>
  <text x="665" y="324" font-size="9" fill="#6b5d4f">sync</text>
  <text x="665" y="408" font-size="9" fill="#6b5d4f">sync</text>

  <!-- Push arrows (dashed, right to left) -->
  <line x1="740" y1="240" x2="610" y2="290" stroke="#6b5d4f" stroke-width="1.5" stroke-dasharray="5,3" marker-end="url(#arr-dim)"/>
  <text x="665" y="257" font-size="9" fill="#c4b99a">push</text>

  <!-- Bottom: hook integration -->
  <line x1="100" y1="480" x2="1100" y2="480" stroke="#c4b99a" stroke-width="1"/>
  <text x="520" y="510" text-anchor="middle" font-size="12" fill="#2c2417">PostToolUse hook fires on .claude/skills/*.md changes</text>
  <text x="520" y="530" text-anchor="middle" font-size="12" fill="#6b5d4f">rune check --file PATH  -->  Claude asks: "push upstream?"</text>
  <text x="520" y="560" text-anchor="middle" font-size="12" fill="#2c2417">muxr pre_create runs rune sync -- skills current before Claude launches</text>

  <!-- Footer -->
  <text x="600" y="610" text-anchor="middle" font-size="11" fill="#c4b99a">dunn.dev/rune -- dunn.dev/runes -- dunn.dev/arcana</text>

  <defs>
    <marker id="arr" viewBox="0 0 10 10" refX="9" refY="5" markerWidth="7" markerHeight="7" orient="auto-start-reverse">
      <path d="M 0 0 L 10 5 L 0 10 z" fill="#2c2417"/>
    </marker>
    <marker id="arr-dim" viewBox="0 0 10 10" refX="9" refY="5" markerWidth="7" markerHeight="7" orient="auto-start-reverse">
      <path d="M 0 0 L 10 5 L 0 10 z" fill="#c4b99a"/>
    </marker>
  </defs>
</svg>
